:SAMPLES-PER-SECOND 30
:FULLY-SPECIFIED
:DEGREES
169
root  56.8052 18.4098 2.53115 149.037 81.5633 102.554
RightUpLeg  -15.7702 5.07124 0.915802
RightLeg  74.0995 13.0122 8.91136
RightFoot  9.26876 -0.0211651 0.102605
RightToes  1.16415e-010 -3.18055e-015 8.94531e-016
Spine  48.3369 -3.90169 -7.34074
Spine1  -10.3519 -7.26004 -3.38559
HEad  -28.5208 7.23415 5.71868
LeftShoulder1  0 -2.69403e-036 -1.28585e-037
LeftArm  22.2273 -3.11571 -81.6479
LeftForeArm  6.8853 -38.004 25.4871
LeftHand  -2.95577 -0.341004 38.5267
RightShoulder  -2.48481e-017 0 -8.08114e-019
RightArm  2.62687 41.1005 91.4968
RightForeArm  9.71956 6.36304 -3.89881
RightHand  7.22838 -20.4217 -38.4071
LeftUpLeg  -50.5869 -11.0417 -6.72195
LeftLeg  109.032 -10.7435 -7.84535
LeftFoot  18.2851 -0.385875 1.56329
LeftToes  4.502e-010 -1.85808e-011 5.37561e-011
170
root  57.4103 18.6792 2.4759 151.107 83.0759 104.725
RightUpLeg  -17.9749 6.3887 2.0138
RightLeg  76.6466 12.225 6.9528
RightFoot  6.24278 0.000615054 -0.022806
RightToes  1.16415e-010 -3.18055e-015 8.94531e-016
Spine  48.6799 -3.59493 -6.40464
Spine1  -10.7526 -6.59442 -2.54877
HEad  -28.22 7.86915 4.11842
LeftShoulder1  0 -2.69403e-036 -1.28585e-037
LeftArm  17.6916 -7.74288 -80.1562
LeftForeArm  5.98667 -42.529 28.0909
LeftHand  -2.84192 -0.189655 38.0824
RightShoulder  -2.48481e-017 0 -8.08114e-019
RightArm  2.97012 40.5189 93.4773
RightForeArm  11.8571 5.56971 -3.26502
RightHand  7.4795 -20.6041 -39.4682
LeftUpLeg  -48.9519 -10.4688 -5.1383
LeftLeg  106.783 -10.5105 -9.39066
LeftFoot  19.6114 -0.16333 0.755298
LeftToes  4.502e-010 -1.85808e-011 5.37561e-011
171
root  57.9535 18.9613 2.4523 153.497 85.0669 107.291
RightUpLeg  -21.1973 7.85507 3.32969
RightLeg  80.7956 11.3757 3.89222
RightFoot  2.60767 0.0808994 -0.603145
RightToes  1.16415e-010 -3.18055e-015 8.94531e-016
Spine  49.3908 -3.09608 -5.33143
Spine1  -11.7119 -5.64512 -1.99706
HEad  -28.243 8.32774 2.83598
LeftShoulder1  0 -2.69403e-036 -1.28585e-037
LeftArm  14.8374 -14.9096 -78.43
LeftForeArm  4.69324 -44.6568 29.4263
LeftHand  -2.52905 0.113245 36.0367
RightShoulder  -2.48481e-017 0 -8.08114e-019
RightArm  3.10034 39.6299 95.1838
RightForeArm  13.5056 4.65032 -2.74606
RightHand  7.69885 -20.7436 -40.4288
LeftUpLeg  -47.1013 -9.32653 -3.1801
LeftLeg  104.936 -10.226 -11.3474
LeftFoot  18.5629 0.120978 -0.231318
LeftToes  4.502e-010 -1.85808e-011 5.37561e-011
172
root  58.4338 19.1859 2.44094 158.935 87.215 112.684
RightUpLeg  -25.6255 9.18879 4.67189
RightLeg  86.3646 11.008 1.57619
RightFoot  0.92157 0.16658 -1.35044
RightToes  1.16415e-010 -3.18055e-015 8.94531e-016
Spine  49.9063 -2.59742 -4.18429
Spine1  -12.6565 -4.61059 -1.74035
HEad  -29.0465 8.70537 1.52794
LeftShoulder1  0 -2.69403e-036 -1.28585e-037
LeftArm  12.7434 -23.5799 -76.3705
LeftForeArm  4.07362 -44.097 28.9969
LeftHand  -2.20357 0.426609 33.724
RightShoulder  -2.48481e-017 0 -8.08114e-019
RightArm  3.56841 38.6444 96.5289
RightForeArm  14.6711 4.24013 -2.41872
RightHand  7.87211 -20.8391 -41.2161
LeftUpLeg  -45.2962 -7.9365 -1.25117
LeftLeg  103.111 -10.1861 -12.848
LeftFoot  17.0203 0.296493 -0.897458
LeftToes  4.502e-010 -1.85808e-011 5.37561e-011
173
root  58.8952 19.3732 2.43902 -157.023 88.845 156.483
RightUpLeg  -31.0578 10.0246 5.91346
RightLeg  92.8411 10.9486 1.33599
RightFoot  1.17398 0.277329 -2.21002
RightToes  1.16415e-010 -3.18055e-015 8.94531e-016
Spine  50.1567 -2.2295 -3.33676
Spine1  -13.3507 -3.82459 -1.45555
HEad  -29.9945 9.22877 0.139477
LeftShoulder1  0 -2.69403e-036 -1.28585e-037
LeftArm  10.9501 -32.331 -73.7605
LeftForeArm  3.79265 -41.1754 27.1132
LeftHand  -2.0348 0.586767 32.4115
RightShoulder  -2.48481e-017 0 -8.08114e-019
RightArm  4.0554 37.6742 98.2076
RightForeArm  16.0369 4.13984 -2.34833
RightHand  8.02494 -20.8935 -41.995
LeftUpLeg  -43.8344 -6.7402 0.448515
LeftLeg  101.195 -10.3905 -13.7197
LeftFoot  16.5408 0.739777 -2.57501
LeftToes  4.502e-010 -1.85808e-011 5.37561e-011
174
root  59.3242 19.5123 2.44695 -93.4128 88.8306 -139.899
RightUpLeg  -36.8808 10.0328 7.1914
RightLeg  99.8061 10.6229 2.77288
RightFoot  2.19502 0.470196 -3.48999
RightToes  1.16415e-010 -3.18055e-015 8.94531e-016
Spine  50.6278 -2.08666 -2.88589
Spine1  -14.0516 -3.4673 -0.831711
HEad  -30.2931 9.93378 -0.94341
LeftShoulder1  0 -2.69403e-036 -1.28585e-037
LeftArm  9.66983 -40.4729 -70.6218
LeftForeArm  3.01459 -36.1896 24.3068
LeftHand  -1.98373 0.614779 31.865
RightShoulder  -2.48481e-017 0 -8.08114e-019
RightArm  4.3387 36.5972 100.424
RightForeArm  17.7252 3.97102 -2.42155
RightHand  8.17824 -20.9533 -42.7474
LeftUpLeg  -42.4558 -5.93161 1.89536
LeftLeg  99.6628 -10.556 -14.7004
LeftFoot  16.7365 1.11484 -3.95005
LeftToes  4.502e-010 -1.85808e-011 5.37561e-011
175
root  59.6979 19.5427 2.46291 -72.5064 88.0411 -118.41
RightUpLeg  -42.5806 9.08658 8.49165
RightLeg  106.81 9.89301 4.39255
RightFoot  3.28742 0.70578 -4.89246
RightToes  1.16415e-010 -3.18055e-015 8.94531e-016
Spine  51.4589 -2.04369 -2.74944
Spine1  -14.6484 -3.38419 0.281469
HEad  -30.0738 10.3976 -1.61008
LeftShoulder1  0 -2.69403e-036 -1.28585e-037
LeftArm  10.1146 -47.9347 -68.0236
LeftForeArm  0.561473 -29.4759 21.36
LeftHand  -1.8999 0.64428 30.8546
RightShoulder  -2.48481e-017 0 -8.08114e-019
RightArm  4.85593 35.4314 102.288
RightForeArm  19.0303 3.82622 -2.42262
RightHand  8.33707 -21.0736 -43.3236
LeftUpLeg  -40.6399 -5.66513 2.91302
LeftLeg  98.6712 -10.5819 -16.0913
LeftFoot  16.8545 0.936754 -3.27293
LeftToes  4.502e-010 -1.85808e-011 5.37561e-011
176
root  60.1 19.4793 2.4915 -89.8476 88.0019 -134.75
RightUpLeg  -48.0834 7.2121 9.36961
RightLeg  113.107 9.08423 5.30698
RightFoot  3.7689 0.787785 -5.31561
RightToes  1.16415e-010 -3.18055e-015 8.94531e-016
Spine  52.3355 -2.01129 -2.97576
Spine1  -14.7988 -3.50295 1.84247
HEad  -29.9089 10.4302 -2.22279
LeftShoulder1  0 -2.69403e-036 -1.28585e-037
LeftArm  5.78684 -54.192 -66.5562
LeftForeArm  3.37641 -22.7642 16.3586
LeftHand  -1.73639 0.710114 28.8903
RightShoulder  -2.48481e-017 0 -8.08114e-019
RightArm  5.51376 34.3308 103.124
RightForeArm  20.0391 4.0129 -2.29873
RightHand  8.47919 -21.2018 -43.7616
LeftUpLeg  -38.2447 -6.21367 3.16229
LeftLeg  97.619 -10.7298 -17.0521
LeftFoot  16.7344 0.84376 -2.94537
LeftToes  4.502e-010 -1.85808e-011 5.37561e-011
177
root  60.5991 19.3838 2.52549 -128.434 87.8717 -172.152
RightUpLeg  -53.4584 4.56835 9.74753
RightLeg  118.14 8.41094 5.69689
RightFoot  3.16265 0.645414 -4.50164
RightToes  1.16415e-010 -3.18055e-015 8.94531e-016
Spine  53.1617 -2.34092 -3.26485
Spine1  -14.6703 -4.03779 3.55564
HEad  -29.8165 10.5426 -3.05304
LeftShoulder1  0 -2.69403e-036 -1.28585e-037
LeftArm  -3.78046 -58.922 -65.3033
LeftForeArm  11.1393 -17.1215 10.9102
LeftHand  -1.52887 0.822727 26.4859
RightShoulder  -2.48481e-017 0 -8.08114e-019
RightArm  5.57458 33.1807 103.537
RightForeArm  21.6809 4.36124 -2.07753
RightHand  8.60568 -21.2729 -44.2843
LeftUpLeg  -35.3965 -7.63205 2.78611
LeftLeg  96.0375 -11.1277 -17.2937
LeftFoot  16.8448 1.13572 -4.00783
LeftToes  4.502e-010 -1.85808e-011 5.37561e-011
178
root  61.1646 19.2567 2.55691 -162.372 86.6237 155.352
RightUpLeg  -58.2781 1.52348 9.93113
RightLeg  121.84 7.88963 5.8922
RightFoot  3.01748 0.584997 -4.16542
RightToes  1.16415e-010 -3.18055e-015 8.94531e-016
Spine  54.0685 -3.17246 -3.37907
Spine1  -14.4736 -4.98442 5.00841
HEad  -29.5286 10.9606 -4.0441
LeftShoulder1  0 -2.69403e-036 -1.28585e-037
LeftArm  -8.02942 -61.8164 -64.1435
LeftForeArm  13.2095 -12.965 8.63762
LeftHand  -1.25355 1.10184 23.7954
RightShoulder  -2.48481e-017 0 -8.08114e-019
RightArm  5.08325 31.9462 104.156
RightForeArm  23.7561 4.4314 -1.77192
RightHand  8.78789 -21.3763 -45.019
LeftUpLeg  -32.1135 -9.6389 2.20334
LeftLeg  94.2502 -11.5954 -17.5811
LeftFoot  17.0068 1.39818 -4.95216
LeftToes  4.502e-010 -1.85808e-011 5.37561e-011
179
root  61.7592 19.0516 2.58772 -176.033 84.4688 143.501
RightUpLeg  -61.7925 -1.58136 9.99327
RightLeg  124.544 7.32005 6.23144
RightFoot  5.79474 0.965495 -5.67514
RightToes  1.16415e-010 -3.18055e-015 8.94531e-016
Spine  54.8916 -4.09878 -3.3521
Spine1  -13.8621 -5.94612 6.28495
HEad  -29.2359 11.0019 -5.06101
LeftShoulder1  0 -2.69403e-036 -1.28585e-037
LeftArm  -6.60376 -63.2638 -64.4317
LeftForeArm  11.1839 -10.2933 7.71419
LeftHand  -0.907784 1.57512 20.6633
RightShoulder  -2.48481e-017 0 -8.08114e-019
RightArm  4.75582 30.8251 104.379
RightForeArm  25.2059 4.3894 -1.47905
RightHand  9.03319 -21.5745 -45.7914
LeftUpLeg  -28.3081 -12.0024 1.60952
LeftLeg  92.6542 -12.0115 -18.4927
LeftFoot  16.7409 1.33924 -4.77894
LeftToes  4.502e-010 -1.85808e-011 5.37561e-011
